<?xml version="1.0" encoding="UTF-8" standalone="no"?>
<!-- Created with Inkscape (http://www.inkscape.org/) -->

<svg
   width="1600"
   height="1280"
   id="svg2"
   version="1.1"
   inkscape:version="1.2.2 (732a01da63, 2022-12-09)"
   sodipodi:docname="backgrounds.svg"
   inkscape:export-filename="/home/harald/HS-Esslingen/Vorlesungen/Internet Technologies/Labor/lab2/backgrounds.png"
   inkscape:export-xdpi="9"
   inkscape:export-ydpi="9"
   xmlns:inkscape="http://www.inkscape.org/namespaces/inkscape"
   xmlns:sodipodi="http://sodipodi.sourceforge.net/DTD/sodipodi-0.dtd"
   xmlns="http://www.w3.org/2000/svg"
   xmlns:svg="http://www.w3.org/2000/svg"
   xmlns:rdf="http://www.w3.org/1999/02/22-rdf-syntax-ns#"
   xmlns:cc="http://creativecommons.org/ns#"
   xmlns:dc="http://purl.org/dc/elements/1.1/">
  <defs
     id="defs4" />
  <sodipodi:namedview
     id="base"
     pagecolor="#ffffff"
     bordercolor="#666666"
     borderopacity="1.0"
     inkscape:pageopacity="0.0"
     inkscape:pageshadow="2"
     inkscape:zoom="0.49497474"
     inkscape:cx="644.47733"
     inkscape:cy="593.9697"
     inkscape:document-units="px"
     inkscape:current-layer="layer1"
     showgrid="true"
     showborder="true"
     inkscape:showpageshadow="false"
     inkscape:window-width="1920"
     inkscape:window-height="1057"
     inkscape:window-x="1016"
     inkscape:window-y="3"
     inkscape:window-maximized="1"
     fit-margin-top="0"
     fit-margin-left="0"
     fit-margin-right="0"
     fit-margin-bottom="0"
     inkscape:snap-grids="true"
     inkscape:pagecheckerboard="0"
     inkscape:deskcolor="#d1d1d1">
    <inkscape:grid
       type="xygrid"
       id="grid2985"
       empspacing="4"
       visible="true"
       enabled="true"
       snapvisiblegridlinesonly="true"
       spacingx="320"
       spacingy="320"
       originx="0"
       originy="0" />
  </sodipodi:namedview>
  <metadata
     id="metadata7">
    <rdf:RDF>
      <cc:Work
         rdf:about="">
        <dc:format>image/svg+xml</dc:format>
        <dc:type
           rdf:resource="http://purl.org/dc/dcmitype/StillImage" />
      </cc:Work>
    </rdf:RDF>
  </metadata>
  <g
     inkscape:label="Ebene 1"
     inkscape:groupmode="layer"
     id="layer1"
     transform="translate(1004,-6645.7925)">
    <rect
       style="fill:#b40000;fill-opacity:0.94117647;stroke:#000000;stroke-width:4.00000048;stroke-linecap:round;stroke-linejoin:miter;stroke-miterlimit:4;stroke-opacity:1;stroke-dasharray:none;stroke-dashoffset:0"
       id="rect4155"
       width="956"
       height="316"
       x="-1002"
       y="6967.7925"
       rx="95.599998"
       ry="94.800003"
       inkscape:export-filename="/home/harald/HS-Esslingen/Vorlesungen/Internet Technologies/Labor/lab2/backgrounds.png"
       inkscape:export-xdpi="9"
       inkscape:export-ydpi="9" />
    <rect
       style="fill:#b40000;fill-opacity:0.94117647;stroke:#000000;stroke-width:4.00000048;stroke-linecap:round;stroke-linejoin:miter;stroke-miterlimit:4;stroke-opacity:1;stroke-dasharray:none;stroke-dashoffset:0"
       id="rect4155-2"
       width="956"
       height="316"
       x="6647.7925"
       y="278"
       rx="95.599998"
       ry="94.800003"
       inkscape:export-filename="/home/harald/HS-Esslingen/Vorlesungen/Internet Technologies/Labor/lab2/backgrounds.png"
       inkscape:export-xdpi="9"
       inkscape:export-ydpi="9"
       transform="matrix(0,1,1,0,0,0)" />
    <path
       style="fill:#000000;fill-opacity:1;stroke:#000000;stroke-width:3.99999976;stroke-linecap:round;stroke-linejoin:miter;stroke-miterlimit:4;stroke-opacity:1;stroke-dasharray:none;stroke-dashoffset:0"
       id="path3786"
       d="m -619.26465,6829.0012 c 1.77418,-4.3795 3.55422,-8.6901 5.83888,-12.7473 2.07353,-4.0714 4.55231,-7.7875 7.00391,-11.551 2.17039,-3.7494 5.16776,-6.55 8.27344,-9.191 3.10123,-3.419 6.76007,-5.9984 10.2014,-8.9154 10.02078,-8.6902 21.18973,-15.1437 32.17362,-22.1819 1.19129,-0.7634 2.56528,-1.0823 3.77617,-1.8031 3.37155,-1.5794 6.71337,-3.1155 10.29618,-3.9311 4.90167,0.915 7.35541,2.8745 9.72792,7.8559 2.29573,4.7337 4.27664,9.713 7.26541,13.9264 2.75076,3.5223 5.79299,6.6387 7.72438,10.8735 1.83919,4.0218 3.75622,8.0264 5.8069,11.9103 1.80622,3.9341 4.08228,7.5138 6.3193,11.1203 2.76915,4.5721 5.72702,9.1276 9.05786,13.1824 3.07198,3.284 6.14425,6.0057 10.17588,7.427 4.12591,1.0394 8.38791,0.9822 12.59011,1.002 0.56374,-0.2907 1.1757,-0.4795 1.69121,-0.8722 0.48907,-0.3727 1.79293,-1.7197 1.28039,-1.392 -7.7359,4.9454 -15.24905,10.3494 -22.99499,15.2736 -0.46288,0.2943 0.72761,-0.8864 1.08,-1.3417 0.19436,-0.2511 2.27238,-3.0509 2.39481,-3.2157 2.71117,-3.6002 6.07849,-6.406 9.2705,-9.3919 3.02801,-2.2363 4.43739,-5.913 6.12932,-9.4079 2.00403,-4.1069 3.7316,-8.3857 5.79503,-12.453 2.03309,-3.4497 4.05841,-6.8143 5.71478,-10.5338 2.37095,-4.4482 5.04792,-8.655 7.53045,-13.0207 2.02612,-3.9313 3.87449,-7.9161 6.04843,-11.7435 0,0 25.82871,-13.9617 25.82871,-13.9617 l 0,0 c -0.50043,2.8106 -1.33746,3.0371 -2.68574,5.2522 -1.20896,1.9863 -1.16428,2.6332 -2.1097,4.8664 -0.37088,0.8761 -0.80518,1.7142 -1.20779,2.5712 -2.67299,4.1102 -4.86612,8.6421 -7.51612,12.7843 -2.16711,3.43 -0.26292,0.029 -1.79127,4.0916 -0.88993,2.3653 -2.55708,4.3441 -3.90472,6.3492 -2.01979,4.0761 -4.0347,8.1296 -5.86707,12.3354 -1.57943,3.7313 -3.06895,7.8126 -5.63001,10.7471 -3.32197,2.6706 -6.38826,5.7369 -9.49974,8.7353 -0.72792,0.9746 -2.51423,4.0511 -3.36022,4.6796 -7.07687,5.2576 -18.07153,18.0051 -29.09432,18.8487 -4.42093,-0.1273 -8.94486,-0.1988 -13.17193,-1.8719 -4.16073,-2.0248 -7.63954,-5.1299 -10.84372,-8.7975 -3.27203,-4.29 -6.2854,-8.8667 -9.24162,-13.4489 -2.38682,-3.6148 -4.64248,-7.3658 -6.512,-11.3741 -2.0041,-4.0022 -4.00164,-8.0062 -5.94178,-12.0486 -1.75357,-4.0549 -4.84649,-6.9509 -7.3031,-10.4244 -2.94864,-4.455 -5.10245,-9.4593 -7.55614,-14.2842 -1.77769,-3.3745 -4.15058,-5.2188 -7.73548,-4.3198 -3.40753,1.1678 -6.70698,2.7402 -9.95039,4.4147 -9.11007,4.3011 -19.78624,12.7491 18.5526,-13.1089 1.3948,-0.9408 -2.74617,1.9677 -4.07883,3.0222 -0.6815,0.5392 -1.3752,1.0576 -2.0628,1.5864 -3.28573,3.0072 -6.95409,5.4127 -10.02054,8.6803 -2.77522,2.9906 -6.42497,4.8198 -8.61863,8.5322 -2.43503,3.7486 -5.05125,7.2915 -7.11614,11.3372 -2.15351,3.9582 -4.60999,7.6879 -5.69542,12.2906 0,0 -26.03738,13.6372 -26.03738,13.6372 z"
       inkscape:connector-curvature="0"
       inkscape:export-filename="/home/harald/HS-Esslingen/Vorlesungen/Internet Technologies/Labor/lab2/backgrounds.png"
       inkscape:export-xdpi="9"
       inkscape:export-ydpi="9" />
    <rect
       style="fill:#b40000;fill-opacity:0.94117647;stroke:none"
       id="rect4155-0-1-1-4"
       width="320"
       height="320"
       x="-44"
       y="6645.7925"
       inkscape:export-filename="/home/harald/HS-Esslingen/Vorlesungen/Internet Technologies/Labor/lab2/backgrounds.png"
       inkscape:export-xdpi="9"
       inkscape:export-ydpi="9" />
    <rect
       style="fill:#b40000;fill-opacity:0.94117647;stroke:#000000;stroke-width:4.00000048;stroke-linecap:round;stroke-linejoin:miter;stroke-miterlimit:4;stroke-opacity:1;stroke-dasharray:none;stroke-dashoffset:0"
       id="rect4155-0-1-6"
       width="316"
       height="316"
       x="6967.7925"
       y="-42"
       rx="94.800003"
       ry="94.800003"
       inkscape:export-filename="/home/harald/HS-Esslingen/Vorlesungen/Internet Technologies/Labor/lab2/backgrounds.png"
       inkscape:export-xdpi="9"
       inkscape:export-ydpi="9"
       transform="matrix(0,1,1,0,0,0)" />
    <text
       xml:space="preserve"
       style="font-style:normal;font-variant:normal;font-weight:normal;font-stretch:normal;line-height:0%;font-family:'DejaVu Sans';-inkscape-font-specification:'DejaVu Sans';letter-spacing:0px;word-spacing:0px;fill:#000000;fill-opacity:1;stroke:none"
       x="-885.09015"
       y="6856.2358"
       id="text4046"
       inkscape:export-filename="/home/harald/HS-Esslingen/Vorlesungen/Internet Technologies/Labor/lab2/backgrounds.png"
       inkscape:export-xdpi="9"
       inkscape:export-ydpi="9"
       transform="scale(0.99741481,1.0025919)"><tspan
         sodipodi:role="line"
         id="tspan4048"
         x="-885.09015"
         y="6856.2358"
         style="font-size:200.518px;line-height:1.25">?</tspan></text>
    <rect
       style="fill:#b40000;fill-opacity:1;stroke:#000000;stroke-width:4;stroke-linecap:round;stroke-linejoin:miter;stroke-miterlimit:4;stroke-opacity:1;stroke-dasharray:none;stroke-dashoffset:0"
       id="rect4128"
       width="60"
       height="60.311432"
       x="-992.91364"
       y="7418.064"
       inkscape:export-filename="/home/harald/HS-Esslingen/Vorlesungen/Internet Technologies/Labor/lab2/backgrounds.png"
       inkscape:export-xdpi="9"
       inkscape:export-ydpi="9" />
    <rect
       style="fill:#b40000;fill-opacity:1;stroke:#000000;stroke-width:4;stroke-linecap:round;stroke-linejoin:miter;stroke-miterlimit:4;stroke-opacity:1;stroke-dasharray:none;stroke-dashoffset:0"
       id="rect4128-8"
       width="60"
       height="60.311432"
       x="-932"
       y="7417.7578"
       inkscape:export-filename="/home/harald/HS-Esslingen/Vorlesungen/Internet Technologies/Labor/lab2/backgrounds.png"
       inkscape:export-xdpi="9"
       inkscape:export-ydpi="9" />
    <rect
       style="fill:#b40000;fill-opacity:1;stroke:#000000;stroke-width:4;stroke-linecap:round;stroke-linejoin:miter;stroke-miterlimit:4;stroke-opacity:1;stroke-dasharray:none;stroke-dashoffset:0"
       id="rect4128-7"
       width="60"
       height="60.311432"
       x="-872.401"
       y="7417.7573"
       inkscape:export-filename="/home/harald/HS-Esslingen/Vorlesungen/Internet Technologies/Labor/lab2/backgrounds.png"
       inkscape:export-xdpi="9"
       inkscape:export-ydpi="9" />
    <rect
       style="fill:#b40000;fill-opacity:1;stroke:#000000;stroke-width:4;stroke-linecap:round;stroke-linejoin:miter;stroke-miterlimit:4;stroke-opacity:1;stroke-dasharray:none;stroke-dashoffset:0"
       id="rect4128-2"
       width="60"
       height="60.311432"
       x="-812.802"
       y="7417.7578"
       inkscape:export-filename="/home/harald/HS-Esslingen/Vorlesungen/Internet Technologies/Labor/lab2/backgrounds.png"
       inkscape:export-xdpi="9"
       inkscape:export-ydpi="9" />
    <rect
       style="fill:#b40000;fill-opacity:1;stroke:#000000;stroke-width:4;stroke-linecap:round;stroke-linejoin:miter;stroke-miterlimit:4;stroke-opacity:1;stroke-dasharray:none;stroke-dashoffset:0"
       id="rect4128-6"
       width="60"
       height="60.311432"
       x="-753.203"
       y="7417.7578"
       inkscape:export-filename="/home/harald/HS-Esslingen/Vorlesungen/Internet Technologies/Labor/lab2/backgrounds.png"
       inkscape:export-xdpi="9"
       inkscape:export-ydpi="9" />
    <g
       id="g4224"
       transform="matrix(0,-1.0051905,1,0,-9603.1531,8506.1076)"
       style="fill:#b40000;fill-opacity:1"
       inkscape:export-filename="/home/harald/HS-Esslingen/Vorlesungen/Internet Technologies/Labor/lab2/backgrounds.png"
       inkscape:export-xdpi="9"
       inkscape:export-ydpi="9">
      <rect
         y="8743.6699"
         x="583.28754"
         height="60"
         width="60"
         id="rect4128-1"
         style="fill:#b40000;fill-opacity:1;stroke:#000000;stroke-width:3.98965931;stroke-linecap:round;stroke-linejoin:miter;stroke-miterlimit:4;stroke-opacity:1;stroke-dasharray:none;stroke-dashoffset:0" />
      <rect
         y="8743.3662"
         x="644.20117"
         height="60"
         width="60"
         id="rect4128-8-8"
         style="fill:#b40000;fill-opacity:1;stroke:#000000;stroke-width:3.98965931;stroke-linecap:round;stroke-linejoin:miter;stroke-miterlimit:4;stroke-opacity:1;stroke-dasharray:none;stroke-dashoffset:0" />
      <rect
         y="8743.3652"
         x="703.80017"
         height="60"
         width="60"
         id="rect4128-7-0"
         style="fill:#b40000;fill-opacity:1;stroke:#000000;stroke-width:3.98965931;stroke-linecap:round;stroke-linejoin:miter;stroke-miterlimit:4;stroke-opacity:1;stroke-dasharray:none;stroke-dashoffset:0" />
      <rect
         y="8743.3662"
         x="763.39917"
         height="60"
         width="60"
         id="rect4128-2-8"
         style="fill:#b40000;fill-opacity:1;stroke:#000000;stroke-width:3.98965931;stroke-linecap:round;stroke-linejoin:miter;stroke-miterlimit:4;stroke-opacity:1;stroke-dasharray:none;stroke-dashoffset:0" />
      <rect
         y="8743.3662"
         x="822.99817"
         height="60"
         width="60"
         id="rect4128-6-0"
         style="fill:#b40000;fill-opacity:1;stroke:#000000;stroke-width:3.98965931;stroke-linecap:round;stroke-linejoin:miter;stroke-miterlimit:4;stroke-opacity:1;stroke-dasharray:none;stroke-dashoffset:0" />
    </g>
    <rect
       style="fill:#b40000;fill-opacity:1;stroke:#000000;stroke-width:4;stroke-linecap:round;stroke-linejoin:miter;stroke-miterlimit:4;stroke-opacity:1;stroke-dasharray:none;stroke-dashoffset:0"
       id="rect4128-71"
       width="60"
       height="60.311432"
       x="-648.96942"
       y="7421.3911"
       inkscape:export-filename="/home/harald/HS-Esslingen/Vorlesungen/Internet Technologies/Labor/lab2/backgrounds.png"
       inkscape:export-xdpi="9"
       inkscape:export-ydpi="9" />
    <rect
       style="fill:#b40000;fill-opacity:1;stroke:#000000;stroke-width:4;stroke-linecap:round;stroke-linejoin:miter;stroke-miterlimit:4;stroke-opacity:1;stroke-dasharray:none;stroke-dashoffset:0"
       id="rect4128-8-0"
       width="60"
       height="60.311432"
       x="-588.05579"
       y="7421.0854"
       inkscape:export-filename="/home/harald/HS-Esslingen/Vorlesungen/Internet Technologies/Labor/lab2/backgrounds.png"
       inkscape:export-xdpi="9"
       inkscape:export-ydpi="9" />
    <rect
       style="fill:#b40000;fill-opacity:1;stroke:#000000;stroke-width:4;stroke-linecap:round;stroke-linejoin:miter;stroke-miterlimit:4;stroke-opacity:1;stroke-dasharray:none;stroke-dashoffset:0"
       id="rect4128-7-6"
       width="60"
       height="60.311432"
       x="-528.45679"
       y="7421.085"
       inkscape:export-filename="/home/harald/HS-Esslingen/Vorlesungen/Internet Technologies/Labor/lab2/backgrounds.png"
       inkscape:export-xdpi="9"
       inkscape:export-ydpi="9" />
    <rect
       style="fill:#b40000;fill-opacity:1;stroke:#000000;stroke-width:4;stroke-linecap:round;stroke-linejoin:miter;stroke-miterlimit:4;stroke-opacity:1;stroke-dasharray:none;stroke-dashoffset:0"
       id="rect4128-2-81"
       width="60"
       height="60.311432"
       x="-468.85782"
       y="7421.0854"
       inkscape:export-filename="/home/harald/HS-Esslingen/Vorlesungen/Internet Technologies/Labor/lab2/backgrounds.png"
       inkscape:export-xdpi="9"
       inkscape:export-ydpi="9" />
    <rect
       style="fill:#b40000;fill-opacity:1;stroke:#000000;stroke-width:4;stroke-linecap:round;stroke-linejoin:miter;stroke-miterlimit:4;stroke-opacity:1;stroke-dasharray:none;stroke-dashoffset:0"
       id="rect4128-71-4"
       width="60"
       height="60.311432"
       x="-294.87277"
       y="7423.7075"
       inkscape:export-filename="/home/harald/HS-Esslingen/Vorlesungen/Internet Technologies/Labor/lab2/backgrounds.png"
       inkscape:export-xdpi="9"
       inkscape:export-ydpi="9" />
    <rect
       style="fill:#b40000;fill-opacity:1;stroke:#000000;stroke-width:4;stroke-linecap:round;stroke-linejoin:miter;stroke-miterlimit:4;stroke-opacity:1;stroke-dasharray:none;stroke-dashoffset:0"
       id="rect4128-8-0-6"
       width="60"
       height="60.311432"
       x="-233.95914"
       y="7423.4019"
       inkscape:export-filename="/home/harald/HS-Esslingen/Vorlesungen/Internet Technologies/Labor/lab2/backgrounds.png"
       inkscape:export-xdpi="9"
       inkscape:export-ydpi="9" />
    <rect
       style="fill:#b40000;fill-opacity:1;stroke:#000000;stroke-width:4;stroke-linecap:round;stroke-linejoin:miter;stroke-miterlimit:4;stroke-opacity:1;stroke-dasharray:none;stroke-dashoffset:0"
       id="rect4128-7-6-8"
       width="60"
       height="60.311432"
       x="-174.36014"
       y="7423.4014"
       inkscape:export-filename="/home/harald/HS-Esslingen/Vorlesungen/Internet Technologies/Labor/lab2/backgrounds.png"
       inkscape:export-xdpi="9"
       inkscape:export-ydpi="9" />
    <rect
       style="fill:#b40000;fill-opacity:1;stroke:#000000;stroke-width:4;stroke-linecap:round;stroke-linejoin:miter;stroke-miterlimit:4;stroke-opacity:1;stroke-dasharray:none;stroke-dashoffset:0"
       id="rect4128-71-41"
       width="60"
       height="60.311432"
       x="56.660343"
       y="7422.4727"
       inkscape:export-filename="/home/harald/HS-Esslingen/Vorlesungen/Internet Technologies/Labor/lab2/backgrounds.png"
       inkscape:export-xdpi="9"
       inkscape:export-ydpi="9" />
    <rect
       style="fill:#b40000;fill-opacity:1;stroke:#000000;stroke-width:4;stroke-linecap:round;stroke-linejoin:miter;stroke-miterlimit:4;stroke-opacity:1;stroke-dasharray:none;stroke-dashoffset:0"
       id="rect4128-8-0-2"
       width="60"
       height="60.311432"
       x="117.57398"
       y="7422.167"
       inkscape:export-filename="/home/harald/HS-Esslingen/Vorlesungen/Internet Technologies/Labor/lab2/backgrounds.png"
       inkscape:export-xdpi="9"
       inkscape:export-ydpi="9" />
    <rect
       style="fill:#b40000;fill-opacity:1;stroke:#000000;stroke-width:4;stroke-linecap:round;stroke-linejoin:miter;stroke-miterlimit:4;stroke-opacity:1;stroke-dasharray:none;stroke-dashoffset:0"
       id="rect4128-8-8-2"
       width="60.311432"
       height="60"
       x="-7889.6997"
       y="-574.88116"
       transform="matrix(0,-1,1,0,0,0)"
       inkscape:export-filename="/home/harald/HS-Esslingen/Vorlesungen/Internet Technologies/Labor/lab2/backgrounds.png"
       inkscape:export-xdpi="9"
       inkscape:export-ydpi="9" />
    <rect
       style="fill:#b40000;fill-opacity:1;stroke:#000000;stroke-width:4;stroke-linecap:round;stroke-linejoin:miter;stroke-miterlimit:4;stroke-opacity:1;stroke-dasharray:none;stroke-dashoffset:0"
       id="rect4128-7-0-0"
       width="60.311432"
       height="60"
       x="-7829.792"
       y="-574.88214"
       transform="matrix(0,-1,1,0,0,0)"
       inkscape:export-filename="/home/harald/HS-Esslingen/Vorlesungen/Internet Technologies/Labor/lab2/backgrounds.png"
       inkscape:export-xdpi="9"
       inkscape:export-ydpi="9" />
    <rect
       style="fill:#b40000;fill-opacity:1;stroke:#000000;stroke-width:4;stroke-linecap:round;stroke-linejoin:miter;stroke-miterlimit:4;stroke-opacity:1;stroke-dasharray:none;stroke-dashoffset:0"
       id="rect4128-2-8-9"
       width="60.311432"
       height="60"
       x="-7769.8828"
       y="-574.88116"
       transform="matrix(0,-1,1,0,0,0)"
       inkscape:export-filename="/home/harald/HS-Esslingen/Vorlesungen/Internet Technologies/Labor/lab2/backgrounds.png"
       inkscape:export-xdpi="9"
       inkscape:export-ydpi="9" />
    <rect
       style="fill:#b40000;fill-opacity:1;stroke:#000000;stroke-width:4;stroke-linecap:round;stroke-linejoin:miter;stroke-miterlimit:4;stroke-opacity:1;stroke-dasharray:none;stroke-dashoffset:0"
       id="rect4128-6-0-0"
       width="60.311432"
       height="60"
       x="-7709.9751"
       y="-574.88116"
       transform="matrix(0,-1,1,0,0,0)"
       inkscape:export-filename="/home/harald/HS-Esslingen/Vorlesungen/Internet Technologies/Labor/lab2/backgrounds.png"
       inkscape:export-xdpi="9"
       inkscape:export-ydpi="9" />
    <rect
       style="fill:#b40000;fill-opacity:1;stroke:#000000;stroke-width:4;stroke-linecap:round;stroke-linejoin:miter;stroke-miterlimit:4;stroke-opacity:1;stroke-dasharray:none;stroke-dashoffset:0"
       id="rect4128-7-0-4"
       width="60.311432"
       height="60"
       x="-7859.0186"
       y="-235.47087"
       transform="matrix(0,-1,1,0,0,0)"
       inkscape:export-filename="/home/harald/HS-Esslingen/Vorlesungen/Internet Technologies/Labor/lab2/backgrounds.png"
       inkscape:export-xdpi="9"
       inkscape:export-ydpi="9" />
    <rect
       style="fill:#b40000;fill-opacity:1;stroke:#000000;stroke-width:4;stroke-linecap:round;stroke-linejoin:miter;stroke-miterlimit:4;stroke-opacity:1;stroke-dasharray:none;stroke-dashoffset:0"
       id="rect4128-2-8-4"
       width="60.311432"
       height="60"
       x="-7799.1104"
       y="-235.46989"
       transform="matrix(0,-1,1,0,0,0)"
       inkscape:export-filename="/home/harald/HS-Esslingen/Vorlesungen/Internet Technologies/Labor/lab2/backgrounds.png"
       inkscape:export-xdpi="9"
       inkscape:export-ydpi="9" />
    <rect
       style="fill:#b40000;fill-opacity:1;stroke:#000000;stroke-width:4;stroke-linecap:round;stroke-linejoin:miter;stroke-miterlimit:4;stroke-opacity:1;stroke-dasharray:none;stroke-dashoffset:0"
       id="rect4128-6-0-9"
       width="60.311432"
       height="60"
       x="-7739.2026"
       y="-235.46989"
       transform="matrix(0,-1,1,0,0,0)"
       inkscape:export-filename="/home/harald/HS-Esslingen/Vorlesungen/Internet Technologies/Labor/lab2/backgrounds.png"
       inkscape:export-xdpi="9"
       inkscape:export-ydpi="9" />
    <rect
       style="fill:#b40000;fill-opacity:1;stroke:#000000;stroke-width:4;stroke-linecap:round;stroke-linejoin:miter;stroke-miterlimit:4;stroke-opacity:1;stroke-dasharray:none;stroke-dashoffset:0"
       id="rect4128-2-8-43"
       width="60.311432"
       height="60"
       x="-7830.3682"
       y="73.636742"
       transform="matrix(0,-1,1,0,0,0)"
       inkscape:export-filename="/home/harald/HS-Esslingen/Vorlesungen/Internet Technologies/Labor/lab2/backgrounds.png"
       inkscape:export-xdpi="9"
       inkscape:export-ydpi="9" />
    <rect
       style="fill:#b40000;fill-opacity:1;stroke:#000000;stroke-width:4;stroke-linecap:round;stroke-linejoin:miter;stroke-miterlimit:4;stroke-opacity:1;stroke-dasharray:none;stroke-dashoffset:0"
       id="rect4128-6-0-6"
       width="60.311432"
       height="60"
       x="-7770.46"
       y="73.636742"
       transform="matrix(0,-1,1,0,0,0)"
       inkscape:export-filename="/home/harald/HS-Esslingen/Vorlesungen/Internet Technologies/Labor/lab2/backgrounds.png"
       inkscape:export-xdpi="9"
       inkscape:export-ydpi="9" />
    <rect
       style="fill:#b40000;fill-opacity:1;stroke:#000000;stroke-width:4;stroke-linecap:round;stroke-linejoin:miter;stroke-miterlimit:4;stroke-opacity:1;stroke-dasharray:none;stroke-dashoffset:0"
       id="rect4128-7-0-5"
       width="60.311432"
       height="60"
       x="-7795.543"
       y="400.88461"
       transform="matrix(0,-1,1,0,0,0)"
       inkscape:export-filename="/home/harald/HS-Esslingen/Vorlesungen/Internet Technologies/Labor/lab2/backgrounds.png"
       inkscape:export-xdpi="9"
       inkscape:export-ydpi="9" />
    <g
       id="g3901"
       transform="matrix(1,0,0,1.0051905,-335.37065,-53.30686)"
       inkscape:export-filename="/home/harald/HS-Esslingen/Vorlesungen/Internet Technologies/Labor/lab2/backgrounds.png"
       inkscape:export-xdpi="9"
       inkscape:export-ydpi="9">
      <path
         transform="translate(-1004,6652.375)"
         inkscape:connector-curvature="0"
         d="m 1053.9191,78.675118 c 13.9062,10.932311 26.4882,23.427392 39.7725,35.104462 14.3056,12.28077 29.2934,23.83029 43.3475,36.39673 6.9968,5.94862 13.6366,12.38873 19.7747,19.22568 7.7466,8.99305 19.4269,13.6154 29.89,18.73981 23.3738,11.64435 46.9832,22.81576 69.9629,35.23136 7.4513,3.84793 13.5148,9.11433 19.1928,15.14528 0,0 -50.6591,30.7555 -50.6591,30.7555 l 0,0 c -5.0383,-5.62105 -10.5128,-10.48789 -17.1899,-14.18906 -22.6942,-12.97315 -46.3993,-23.87278 -70.191,-34.65897 -11.4284,-5.35274 -23.8719,-10.06854 -32.1149,-20.04626 -6.0543,-6.60671 -12.3508,-13.02048 -18.9485,-19.08223 -13.65,-12.79598 -28.1084,-24.77513 -42.455,-36.77295 -13.2791,-11.40385 -25.7554,-24.10754 -40.7569,-33.25581 0,0 50.3749,-32.593542 50.3749,-32.593542 z"
         id="path3129"
         style="fill:#000000;fill-opacity:1;stroke:#000000;stroke-width:3.98965931;stroke-linecap:round;stroke-linejoin:miter;stroke-miterlimit:4;stroke-opacity:1;stroke-dasharray:none;stroke-dashoffset:0" />
      <path
         transform="translate(-1004,6652.375)"
         inkscape:connector-curvature="0"
         d="m 1237.8098,59.920172 c -9.336,10.642646 -17.162,22.471618 -25.1028,34.158319 -7.3315,9.778759 -13.4184,20.387699 -20.1834,30.539289 -5.4041,7.89059 -11.4564,15.25531 -18.1487,22.07739 -9.2115,8.05806 -18.1318,16.42094 -26.5583,25.29897 -8.1262,8.33206 -15.3123,17.5604 -23.874,25.45163 -7.4272,6.73373 -14.4352,13.94521 -21.1458,21.39087 -5.0873,6.37595 -10.9612,12.03741 -16.3301,18.15457 -5.075,5.97653 -10.072,12.05783 -14.1892,18.74096 -0.342,0.51043 -0.6839,1.02085 -1.0259,1.53127 0,0 -54.3735,25.54633 -54.3735,25.54633 l 0,0 c 0.1756,-1.05064 0.3513,-2.10127 0.527,-3.15191 4.8181,-6.32075 8.4678,-13.54127 14.0572,-19.34376 5.2123,-6.39567 11.0737,-12.06332 16.5408,-18.22952 6.2977,-7.99059 13.7852,-14.97277 20.8596,-22.2687 1.1716,-0.96181 7.099,-5.76847 8.1469,-6.86795 5.5476,-5.82073 10.3199,-12.49262 16.1521,-18.08841 8.2554,-9.02501 16.8012,-17.7799 26.2442,-25.57682 7.0624,-6.16116 13.0772,-13.38968 18.4447,-21.06857 7.8478,-9.51346 12.9147,-21.0769 20.8525,-30.58293 7.8852,-11.45797 15.3106,-23.278184 23.9866,-34.161606 0,0 55.1201,-23.549422 55.1201,-23.549422 z"
         id="path3131"
         style="fill:#000000;fill-opacity:1;stroke:#000000;stroke-width:3.98965931;stroke-linecap:round;stroke-linejoin:miter;stroke-miterlimit:4;stroke-opacity:1;stroke-dasharray:none;stroke-dashoffset:0" />
    </g>
  </g>
</svg>
