<svg xmlns="http://www.w3.org/2000/svg" width="365.03" height="95.13" viewBox="0 0 365.03 95.13">
  <g id="Ebene_2" data-name="Ebene 2">
    <g id="Ebene_1-2" data-name="Ebene 1">
      <rect x="7.56" y="7.45" width="80" height="80" rx="22.61" style="fill: #5272ff"/>
      <polygon points="44.95 28.95 34.55 28.95 29.36 37.95 34.55 46.95 44.95 46.95 50.14 37.95 44.95 28.95" style="fill: #fff;stroke: #fcfcfc;stroke-miterlimit: 10;stroke-width: 0.5px"/>
      <polygon points="62.24 38.95 51.85 38.95 46.65 47.95 51.85 56.95 62.24 56.95 67.44 47.95 62.24 38.95" style="fill: #fff;stroke: #fcfcfc;stroke-miterlimit: 10;stroke-width: 0.5px"/>
      <polygon points="44.98 48.95 34.59 48.95 29.39 57.95 34.59 66.95 44.98 66.95 50.18 57.95 44.98 48.95" style="fill: #fff;stroke: #fcfcfc;stroke-miterlimit: 10;stroke-width: 0.5px"/>
      <g>
        <path d="M113.94,69.3h-7V26.47h24.2v5.92H113.94V45.75h16.11v5.89H113.94Z" style="fill: #374140"/>
        <path d="M138.33,69.3V26.47h7V69.3Z" style="fill: #374140"/>
        <path d="M156,69.3V26.47h7V63.33h18.2v6Z" style="fill: #374140"/>
        <path d="M212.31,69.3H188.05V26.47h24.26v5.92H195.08V44h16.14v5.89H195.08V63.36h17.23Z" style="fill: #374140"/>
        <path d="M245.66,57.64a11.48,11.48,0,0,1-1.86,6.57,11.81,11.81,0,0,1-5.33,4.22,21.39,21.39,0,0,1-8.28,1.46,37.89,37.89,0,0,1-4.48-.26,29.67,29.67,0,0,1-4-.78,21.27,21.27,0,0,1-3.44-1.24V61a44.29,44.29,0,0,0,5.83,2.07,23.52,23.52,0,0,0,6.56.92,12.52,12.52,0,0,0,4.53-.71,5.26,5.26,0,0,0,3.56-5.18,5,5,0,0,0-1-3.22,9.36,9.36,0,0,0-3.09-2.41,54.66,54.66,0,0,0-5.17-2.36,34.85,34.85,0,0,1-4-1.94A15.89,15.89,0,0,1,222,45.6a10.67,10.67,0,0,1-2.36-3.47,11.82,11.82,0,0,1-.86-4.73,10.84,10.84,0,0,1,1.74-6.21,11.07,11.07,0,0,1,4.92-4,18.73,18.73,0,0,1,7.43-1.37,27.44,27.44,0,0,1,6.34.7,32.83,32.83,0,0,1,5.85,2l-2.23,5.66a40.54,40.54,0,0,0-5.11-1.73,20,20,0,0,0-5.06-.65,9.49,9.49,0,0,0-3.78.68,5.21,5.21,0,0,0-2.35,1.89,5.07,5.07,0,0,0-.81,2.88,5.26,5.26,0,0,0,.92,3.15,8.4,8.4,0,0,0,2.87,2.33q2,1.07,5,2.35a36.9,36.9,0,0,1,6,3.07A11.78,11.78,0,0,1,244.34,52,10.93,10.93,0,0,1,245.66,57.64Z" style="fill: #374140"/>
        <path d="M265.45,46l10.17-19.54h7.58L269,52.66V69.3h-7V52.93L247.7,26.47h7.64Z" style="fill: #374140"/>
        <path d="M324,69.3h-8.64l-21-34.18h-.26c.08,1.15.15,2.37.22,3.66s.13,2.62.17,4,.1,2.76.14,4.16V69.3h-6.39V26.47h8.58l20.95,34H318c0-1-.09-2.14-.15-3.43s-.11-2.62-.16-4-.08-2.71-.1-4V26.47H324Z" style="fill: #374140"/>
        <path d="M352.87,31.83A13,13,0,0,0,347.38,33a11.12,11.12,0,0,0-4.09,3.21,14.59,14.59,0,0,0-2.54,5.06,23.54,23.54,0,0,0-.88,6.7,23.64,23.64,0,0,0,1.4,8.57A11.48,11.48,0,0,0,345.55,62a12.81,12.81,0,0,0,7.27,1.91,26.54,26.54,0,0,0,5.3-.52A48.38,48.38,0,0,0,363.45,62v6a27.52,27.52,0,0,1-5.27,1.49,36.17,36.17,0,0,1-6.16.47,20.11,20.11,0,0,1-10.88-2.72,16.51,16.51,0,0,1-6.44-7.68,29.18,29.18,0,0,1-2.13-11.6A28,28,0,0,1,333.92,39a20.13,20.13,0,0,1,3.93-7,17.12,17.12,0,0,1,6.37-4.55,22.28,22.28,0,0,1,8.68-1.59,28.17,28.17,0,0,1,6.35.72,25.64,25.64,0,0,1,5.78,2l-2.46,5.8a35.17,35.17,0,0,0-4.66-1.81A16.69,16.69,0,0,0,352.87,31.83Z" style="fill: #374140"/>
      </g>
    </g>
  </g>
</svg>
